<svg xmlns="http://www.w3.org/2000/svg" xmlns:xlink="http://www.w3.org/1999/xlink" version="1.1" id="v-2" width="450" height="293" class="waiting"><defs id="v-4" class="waiting"><marker id="v-2-479506292" orient="auto" overflow="visible" markerUnits="userSpaceOnUse" class="waiting"><path id="v-140" stroke="black" fill="none" transform="rotate(180)" d="m 10,-6 l 0,12" stroke-width="1.2" class="waiting"/></marker><marker id="v-21429980022" orient="auto" overflow="visible" markerUnits="userSpaceOnUse" class="waiting"><path id="v-148" stroke="black" fill="none" transform="rotate(180)" d="m 10,-6 l -10,6 10,6" stroke-width="1.2" class="waiting"/></marker><marker id="v-2-933205445" orient="auto" overflow="visible" markerUnits="userSpaceOnUse" class="waiting"><path id="v-170" stroke="black" fill="black" transform="rotate(180)" d="m 12,-6 l -12,6 12,6 z" stroke-width="1.2" class="waiting"/></marker></defs><g id="v-3" class="joint-viewport waiting" style="cursor: move;" transform="matrix(1,0,0,1,-76,-57)"><g model-id="20840210-992e-4ac2-8d17-b8934d978952" id="j_38" class="joint-cell joint-type-agent joint-element joint-theme-default waiting" data-type="Agent" transform="translate(448,159)" style="cursor: move;"><g id="v-231" style="cursor: move;" class="waiting"><rect class="boundary waiting" id="v-234" fill="rgb(230,230,230)" height="120" rx="100" ry="40" stroke="black" stroke-dasharray="10,5,4,4" stroke-width="2" width="200" display="none" style="stroke: black; stroke-width: 2;"/><circle class="element actorKindMain waiting" id="v-232" cx="40" cy="40" fill="rgb(205,254,205)" r="40" stroke="black" stroke-width="2" transform="translate(-20, -20)" style="stroke: black; stroke-width: 2; cursor: move;"/><path class="actorDecorator waiting" id="v-235" d="m -10 -5 60 0" fill="none" stroke="black" stroke-width="1.5" style="stroke: black; stroke-width: 2;"/><text id="v-233" font-size="12" xml:space="preserve" y="0.8em" fill="#000000" font-family="Arial, helvetica, sans-serif" text-anchor="middle" transform="matrix(1,0,0,1,20,14.4)" class="waiting"><tspan dy="0" class="v-line waiting">piStar tool</tspan></text></g></g><g model-id="3589ee55-603d-41ee-8bf1-2b2a54498def" id="j_34" class="joint-cell joint-type-actor joint-element joint-theme-default waiting" data-type="Actor" transform="translate(106,87)" style="cursor: move;"><g id="v-206" style="cursor: move;" class="waiting"><rect class="boundary waiting" id="v-209" fill="rgb(230,230,230)" height="164" rx="100" ry="40" stroke="black" stroke-dasharray="10,5,4,4" stroke-width="2" width="301" style="stroke: black; stroke-width: 2;"/><circle class="element actorKindMain waiting" id="v-207" cx="40" cy="40" fill="rgb(205,254,205)" r="40" stroke="black" stroke-width="2" transform="translate(-20, -20)" style="stroke: black; stroke-width: 2; cursor: move;"/><path class="waiting"/><text id="v-208" font-size="12" xml:space="preserve" y="0.8em" fill="#000000" font-family="Arial, helvetica, sans-serif" text-anchor="middle" transform="matrix(1,0,0,1,20,14.4)" class="waiting"><tspan dy="0" class="v-line waiting">Researcher</tspan></text></g></g><g model-id="230b59ec-a6b8-4cc5-b557-e18d42e57386" id="j_41" class="joint-cell joint-type-dependencylink joint-link joint-theme-default waiting" data-type="DependencyLink" style="cursor: move;"><path joint-selector="connection-wrap" id="v-249" fill="none" stroke="transparent" stroke-linecap="round" stroke-width="20" d="M 410.6078186035156 321.5093688964844 C 430.26109259469166 321.24549293518066 449.9143665858677 320.98161697387695 466 320 C 482.0856334141323 319.01838302612305 494.60362625122076 317.31902503967285 501 306 C 507.39637374877924 294.68097496032715 507.67112840924943 273.74228286743164 504 257 C 500.32887159075057 240.25771713256833 492.71186011178156 227.7118434906006 485.0948486328125 215.1659698486328" class="waiting"/><path joint-selector="line" id="v-248" fill="none" stroke="black" stroke-width="1" d="M 410.6078186035156 321.5093688964844 C 430.26109259469166 321.24549293518066 449.9143665858677 320.98161697387695 466 320 C 482.0856334141323 319.01838302612305 494.60362625122076 317.31902503967285 501 306 C 507.39637374877924 294.68097496032715 507.67112840924943 273.74228286743164 504 257 C 500.32887159075057 240.25771713256833 492.71186011178156 227.7118434906006 485.0948486328125 215.1659698486328" class="waiting"/><path joint-selector="label" id="v-250" d="m 0,-10 l 0,20 4,0 c 10,0, 10 -20, 0,-20 l -4,0" fill="white" stroke="black" stroke-width="2" transform="matrix(0.4711947364020345,-0.8820292060850464,0.8820292060850464,0.4711947364020345,501.3,305.5)" class="waiting"/></g><g model-id="02a456a4-8028-4805-9bb1-49c2b1766f96" id="j_40" class="joint-cell joint-type-dependencylink joint-link joint-theme-default waiting" data-type="DependencyLink" style="cursor: move;"><path joint-selector="connection-wrap" id="v-246" fill="none" stroke="transparent" stroke-linecap="round" stroke-width="20" d="M 343.1640625 223.00936889648438 C 328.96171824137366 241.29635111490884 314.7593739827474 259.5833333333333 326 276 C 337.2406260172526 292.4166666666667 373.92422231038415 306.96301778157556 410.6078186035156 321.5093688964844" class="waiting"/><path joint-selector="line" id="v-245" fill="none" stroke="black" stroke-width="1" d="M 343.1640625 223.00936889648438 C 328.96171824137366 241.29635111490884 314.7593739827474 259.5833333333333 326 276 C 337.2406260172526 292.4166666666667 373.92422231038415 306.96301778157556 410.6078186035156 321.5093688964844" class="waiting"/><path joint-selector="label" id="v-247" d="m 0,-10 l 0,20 4,0 c 10,0, 10 -20, 0,-20 l -4,0" fill="white" stroke="black" stroke-width="2" transform="matrix(0.8260647960587119,0.5635751526748485,-0.5635751526748485,0.8260647960587119,339.6,288.5)" class="waiting"/></g><g model-id="71c7aeb6-fb99-40a1-bcd1-5a29e5b45252" id="j_35" class="joint-cell joint-type-goal joint-element joint-theme-default waiting" data-type="Goal" fill="#ffffff" stroke="none" transform="translate(307,126)" style="cursor: move;"><g class="rotatable waiting" id="v-213" style="cursor: move;"><g class="scalable waiting" transform="scale(0.6923076923076923,1.1666666666666667)" style="cursor: move;"><rect id="v-214" fill="rgb(205,254,205)" height="30" rx="20" stroke="black" stroke-width="2" vector-effect="non-scaling-stroke" width="130" class="waiting"/></g><text id="v-215" font-size="12" xml:space="preserve" y="0.8em" font-weight="bold" fill="#000000" text-anchor="middle" font-family="Arial, helvetica, sans-serif" transform="matrix(1,0,0,1,45,5.9)" class="waiting"><tspan dy="0" class="v-line waiting">i* models</tspan><tspan dy="1em" x="0" class="v-line waiting">created</tspan></text></g></g><g model-id="8d716a61-1ca4-44f4-934c-26166ea44d11" id="j_36" class="joint-cell joint-type-task joint-element joint-theme-default waiting" data-type="Task" fill="#ffffff" stroke="none" transform="translate(295,205)" style="cursor: move;"><g class="rotatable waiting" id="v-219" style="cursor: move;"><g class="scalable waiting" transform="scale(0.7307692307692307,1)" style="cursor: move;"><polygon id="v-220" fill="rgb(205,254,205)" height="36" points="0,18 15,0 115,0 130,18 115,36 15,36" stroke="black" stroke-width="2" vector-effect="non-scaling-stroke" width="130" class="waiting"/></g><text id="v-221" font-size="12" xml:space="preserve" y="0.8em" font-weight="bold" text-anchor="middle" fill="#000000" font-family="Arial, helvetica, sans-serif" transform="matrix(1,0,0,1,47.5,12.4)" class="waiting"><tspan dy="0" class="v-line waiting">Use piStar</tspan></text></g></g><g model-id="e159ce92-b29d-4fdc-a533-ee1e904f9f57" id="j_37" class="joint-cell joint-type-quality joint-element joint-theme-default waiting" data-type="Quality" fill="#ffffff" stroke="none" transform="translate(176,115)" style="cursor: move;"><g class="rotatable waiting" id="v-225" style="cursor: move;"><g class="scalable waiting" transform="scale(0.7852376964064524,1.0380876717711)" style="cursor: move;"><path id="v-226" d="m 60.637955,-4.0358 c 17.5174,2.2042 29.9953,-10.69554 41.892705,-4.7858 22.34142,10.8714 11.2203,43.7743 -2.25,47.7322 -8.276505,2.9084 -13.960205,5.1934 -46.142805,-2.1786 -6.7454,-2.2317 -28.2652,6.0799 -35.4643,4.7143 C 9.072156,39.4809 6.491756,33.7693 3.744956,28.482 c -6.3069,-15.1266 -2.5738,-28.0439 7.981099,-34.7856 10.5549,-6.74179 27.9316,-7.30796 48.9119,2.2678 z" fill="rgb(205,254,205)" stroke="black" stroke-width="2" vector-effect="non-scaling-stroke" transform="matrix(1,0,0,1,-0.7,11.3)" class="waiting"/></g><text id="v-227" font-size="12" xml:space="preserve" y="0.8em" font-weight="bold" text-anchor="middle" fill="#000000" font-family="Arial, helvetica, sans-serif" transform="matrix(1,0,0,1,45,23.6)" class="waiting"><tspan dy="0" class="v-line waiting">Good Quality</tspan></text></g></g><g model-id="a4fef0e8-8414-4037-bc7d-b489d4d5b705" id="j_39" class="joint-cell joint-type-resource joint-element joint-theme-default waiting" data-type="Resource" fill="#ffffff" stroke="none" transform="translate(362,304)" style="cursor: move;"><g class="rotatable waiting" id="v-239" style="cursor: move;"><g class="scalable waiting" transform="scale(0.747235576923077,1.1703125)" style="cursor: move;"><rect id="v-240" fill="rgb(205,254,205)" height="30" rx="0" stroke="black" stroke-width="2" vector-effect="non-scaling-stroke" width="130" class="waiting"/></g><text id="v-241" font-size="12" xml:space="preserve" y="0.8em" font-weight="bold" fill="#000000" text-anchor="middle" font-family="Arial, helvetica, sans-serif" transform="matrix(1,0,0,1,48.6,5.9)" class="waiting"><tspan dy="0" class="v-line waiting">High resolution</tspan><tspan dy="1em" x="0" class="v-line waiting">image</tspan></text></g></g><g model-id="e311a763-1988-46dd-a06a-a926293fff50" id="j_43" class="joint-cell joint-type-contributionlink joint-link joint-theme-default waiting" data-type="ContributionLink" style="cursor: move;"><path joint-selector="connection-wrap" id="v-261" fill="none" stroke="transparent" stroke-linecap="round" stroke-width="20" d="M 297.3391418457031 219.1588897705078 C 295.7238257514106 220.39097290039064 294.108509657118 221.62305603027346 285 218 C 275.891490342882 214.37694396972654 259.2897871229384 205.89874877929688 250 197 C 240.71021287706162 188.10125122070312 238.73234185112847 178.78194885253907 236.7544708251953 169.462646484375" class="waiting"/><path joint-selector="line" id="v-260" fill="none" stroke="black" stroke-width="1" d="M 297.3391418457031 219.1588897705078 C 295.7238257514106 220.39097290039064 294.108509657118 221.62305603027346 285 218 C 275.891490342882 214.37694396972654 259.2897871229384 205.89874877929688 250 197 C 240.71021287706162 188.10125122070312 238.73234185112847 178.78194885253907 236.7544708251953 169.462646484375" marker-end="url(#v-21429980022)" class="waiting"/><g id="v-256" class="labels waiting" style="cursor: move;"><g id="v-257" class="label waiting" label-idx="0" cursor="default" transform="translate(266.1321809691612, 208.647275574201)" style="cursor: move;"><rect joint-selector="rect" id="v-259" fill="rgb(230,230,230)" rx="3" ry="3" width="25.328125" height="14" transform="matrix(1,0,0,1,-12.3,-7)" class="waiting"/><text joint-selector="text" id="v-258" fill="#000000" font-size="12" text-anchor="middle" pointer-events="none" font-family="sans-serif" font-weight="bold" xml:space="preserve" y="0.8em" transform="matrix(1,0,0,1,0,-5.6)" class="waiting"><tspan dy="0" class="v-line waiting">help</tspan></text></g></g></g><g model-id="8e44fb15-0eff-41c2-9970-83b2e6c79207" id="j_44" class="joint-cell joint-type-orrefinementlink joint-link joint-theme-default waiting" data-type="OrRefinementLink" style="cursor: move;"><path joint-selector="connection-wrap" id="v-264" fill="none" stroke="transparent" stroke-linecap="round" stroke-width="20" d="M 349.492919921875 205 L 349.90880503144655 161" class="waiting"/><path joint-selector="line" id="v-263" fill="none" stroke="black" stroke-width="1" d="M 349.492919921875 205 L 349.90880503144655 161" marker-end="url(#v-2-933205445)" class="waiting"/></g></g><g id="v-5" class="joint-tools-container waiting" style="cursor: move;" transform="matrix(1,0,0,1,-76,-57)"><g class="joint-tools joint-theme-default waiting" style="cursor: move;"><g class="joint-tool joint-theme-default waiting" data-tool-name="vertices" model-id="02a456a4-8028-4805-9bb1-49c2b1766f96" style="cursor: move; display: none;"><path fill="none" stroke="transparent" stroke-width="10" cursor="cell" joint-selector="connection" d="M 340.89 230.01 C 329.64916666666664 246.4633333333333 318.4083333333333 262.91666666666663 326 276 C 333.5916666666667 289.08333333333337 360.0158333333334 298.7966666666667 386.44 308.51" class="joint-vertices-path waiting"/><circle r="6" fill="#33334F" stroke="#FFFFFF" stroke-width="2" cursor="move" class="joint-marker-vertex joint-theme-default waiting" cx="326" cy="276" model-id="02a456a4-8028-4805-9bb1-49c2b1766f96"/></g></g><g class="joint-tools joint-theme-default waiting" style="cursor: move;"><g class="joint-tool joint-theme-default waiting" data-tool-name="vertices" model-id="230b59ec-a6b8-4cc5-b557-e18d42e57386" style="cursor: move; display: none;"><path fill="none" stroke="transparent" stroke-width="10" cursor="cell" joint-selector="connection" d="M 454.6 320.31 C 455.6532142857143 320.53017857142856 456.70642857142866 320.7503571428571 466 320 C 475.29357142857134 319.2496428571429 492.82749999999993 317.52875 501 306 C 509.17250000000007 294.47125 507.98357142857145 273.13464285714286 504 257 C 500.01642857142855 240.86535714285714 493.23821428571426 229.93267857142857 486.46 219" class="joint-vertices-path waiting"/><circle r="6" fill="#33334F" stroke="#FFFFFF" stroke-width="2" cursor="move" class="joint-marker-vertex joint-theme-default waiting" cx="466" cy="320" model-id="230b59ec-a6b8-4cc5-b557-e18d42e57386"/><circle r="6" fill="#33334F" stroke="#FFFFFF" stroke-width="2" cursor="move" class="joint-marker-vertex joint-theme-default waiting" cx="501" cy="306" model-id="230b59ec-a6b8-4cc5-b557-e18d42e57386"/><circle r="6" fill="#33334F" stroke="#FFFFFF" stroke-width="2" cursor="move" class="joint-marker-vertex joint-theme-default waiting" cx="504" cy="257" model-id="230b59ec-a6b8-4cc5-b557-e18d42e57386"/></g></g><g class="joint-tools joint-theme-default waiting" style="cursor: move;"><g class="joint-tool joint-theme-default waiting" data-tool-name="vertices" model-id="e311a763-1988-46dd-a06a-a926293fff50" style="display: none; cursor: move;"><path fill="none" stroke="transparent" stroke-width="10" cursor="cell" joint-selector="connection" d="M 315.33 205 L 262.49 169.99" class="joint-vertices-path waiting"/></g></g><g class="joint-tools joint-theme-default waiting" style="cursor: move;"><g class="joint-tool joint-theme-default waiting" data-tool-name="vertices" model-id="8e44fb15-0eff-41c2-9970-83b2e6c79207" style="cursor: move; display: none;"><path fill="none" stroke="transparent" stroke-width="10" cursor="cell" joint-selector="connection" d="M 344.65 205 L 349.91 161" class="joint-vertices-path waiting"/></g></g></g></svg>