<svg xmlns="http://www.w3.org/2000/svg" xmlns:xlink="http://www.w3.org/1999/xlink" version="1.1" id="v-2" width="464" height="261"><g id="v-3" class="joint-viewport" style="cursor: move;" transform="matrix(1,0,0,1,-79,-3)"><g model-id="127bd9ba-4902-41c5-8396-7f5c324231fc" id="j_7" class="joint-cell joint-type-istar joint-type-istar-agent joint-element joint-theme-default" data-type="istar.Agent" transform="translate(463,147)" style="cursor: move;"><g id="v-62" style="cursor: move;"><rect class="boundary" id="v-65" width="200" height="120" rx="100" ry="40" fill="rgb(230,230,230)" stroke="black" stroke-width="2" stroke-dasharray="10,5,4,4" style="stroke: black; stroke-width: 2;" display="none"/><circle class="element actorKindMain" id="v-63" transform="translate(-20, -20)" r="40" cx="40" cy="40" fill="rgb(205,254,205)" stroke="black" stroke-width="2" style="cursor: move; stroke: black; stroke-width: 2;"/><path class="actorDecorator" id="v-66" d="m -10 -5 60 0" stroke="black" stroke-width="1.5" fill="none" style="stroke: black; stroke-width: 2;"/><text id="v-64" font-size="12" xml:space="preserve" y="0.8em" text-anchor="middle" fill="#000000" font-family="Arial, helvetica, sans-serif" transform="matrix(1,0,0,1,20,14.399999618530273)"><tspan id="v-74" class="v-line" dy="0em">piStar</tspan></text></g></g><g model-id="3ce988ff-fabc-4f3a-bb2f-a8a2efee8d78" id="j_1" class="joint-cell joint-type-istar joint-type-istar-actor joint-element joint-theme-default" data-type="istar.Actor" transform="translate(119,77)" style="cursor: move;"><g id="v-7" style="cursor: move;"><rect class="boundary" id="v-10" width="301" height="167" rx="100" ry="40" fill="rgb(230,230,230)" stroke="black" stroke-width="2" stroke-dasharray="10,5,4,4" style="stroke: black; stroke-width: 2;"/><circle class="element actorKindMain" id="v-8" transform="translate(-20, -20)" r="40" cx="40" cy="40" fill="rgb(205,254,205)" stroke="black" stroke-width="2" style="stroke: black; stroke-width: 2; cursor: move;"/><path/><text id="v-9" font-size="12" xml:space="preserve" y="0.8em" text-anchor="middle" fill="#000000" font-family="Arial, helvetica, sans-serif" transform="matrix(1,0,0,1,20,14.399999618530273)"><tspan id="v-11" class="v-line" dy="0em">Researcher</tspan></text></g></g><g model-id="88e4478b-bc55-49b6-b491-0ffb52e86a69" id="j_16" class="joint-cell joint-type-istar joint-type-istar-dependencylink joint-link joint-theme-default" data-type="istar.DependencyLink" style="cursor: move;"><path class="connection" stroke="black" d="M 436 41 C 448.58333333333337 50.833333333333336 461.1666666666667 60.66666666666667 468 75 C 474.8333333333333 89.33333333333333 475.91666666666663 108.16666666666666 477 127" id="v-1109" fill="none"/><path class="marker-source" fill="black" stroke="black" d="" id="v-1111" transform="translate(436,41) scale(1,1) rotate(46.7357167307145)"/><path class="marker-target" fill="black" stroke="black" d="" id="v-1112" transform="translate(477,127) scale(1,1) rotate(-99.81929837381013)"/><path class="connection-wrap" d="M 436 41 C 448.58333333333337 50.833333333333336 461.1666666666667 60.66666666666667 468 75 C 474.8333333333333 89.33333333333333 475.91666666666663 108.16666666666666 477 127" id="v-1110" fill="none"/><g class="labels" style="cursor: move;"><g class="label" id="v-1105" label-idx="0" cursor="default" transform="translate(468.5186767578125, 77.99675750732422)" style="cursor: move;"><rect id="v-1107" fill="none" rx="3" ry="3" width="17.33333396911621" height="28" transform="rotate(58.832827353897734) translate(0,-11)"/><text id="v-1106" font-size="24" xml:space="preserve" y="0.8em" text-anchor="middle" fill="#000000" pointer-events="none" stroke-width="2" font-family="sans-serif" font-style="normal" transform="rotate(58.832827353897734) translate(0,-11)"><tspan id="v-1108" class="v-line" dy="0em">D</tspan></text></g></g><g class="marker-vertices" style="cursor: move; display: none;"><g class="marker-vertex-group" transform="translate(468, 75)" id="v-1222"><circle class="marker-vertex" idx="0" r="10"/><path class="marker-vertex-remove-area" idx="0" d="M16,5.333c-7.732,0-14,4.701-14,10.5c0,1.982,0.741,3.833,2.016,5.414L2,25.667l5.613-1.441c2.339,1.317,5.237,2.107,8.387,2.107c7.732,0,14-4.701,14-10.5C30,10.034,23.732,5.333,16,5.333z" transform="translate(5, -33)"/><path class="marker-vertex-remove" idx="0" transform="scale(.8) translate(9.5, -37)" d="M24.778,21.419 19.276,15.917 24.777,10.415 21.949,7.585 16.447,13.087 10.945,7.585 8.117,10.415 13.618,15.917 8.116,21.419 10.946,24.248 16.447,18.746 21.948,24.248z"><title>Remove vertex.</title></path></g></g><g class="marker-arrowheads" style="cursor: move; display: none;"><g id="v-1102" transform="translate(436,41) scale(0.5,0.5) rotate(46.7357167307145)" style="cursor: move;"/><g id="v-1103" transform="translate(477,127) scale(0.5,0.5) rotate(-99.81929837381013)" style="cursor: move;"/></g><g class="link-tools" style="cursor: move; display: none;"><g id="v-1101" transform="translate(449.7073059082031, 55.56399917602539) scale(.5)" style="cursor: pointer;"/></g></g><g model-id="fef1bd6e-0c89-4557-83b2-224c6446a2f4" id="j_15" class="joint-cell joint-type-istar joint-type-istar-dependencylink joint-link joint-theme-default" data-type="istar.DependencyLink" style="cursor: move;"><path class="connection" stroke="black" d="M 240 117 C 250.84444444444443 97.8 261.68888888888887 78.6 280 64 C 298.31111111111113 49.400000000000006 324.08888888888896 39.400000000000006 346 36 C 367.91111111111104 32.599999999999994 385.9555555555555 35.8 404 39" id="v-1097" fill="none"/><path class="marker-source" fill="black" stroke="black" d="" id="v-1099" transform="translate(240,117) scale(1,1) rotate(-52.957523015344776)"/><path class="marker-target" fill="black" stroke="black" d="" id="v-1100" transform="translate(404,39) scale(1,1) rotate(-177.03906243252936)"/><path class="connection-wrap" d="M 240 117 C 250.84444444444443 97.8 261.68888888888887 78.6 280 64 C 298.31111111111113 49.400000000000006 324.08888888888896 39.400000000000006 346 36 C 367.91111111111104 32.599999999999994 385.9555555555555 35.8 404 39" id="v-1098" fill="none"/><g class="labels" style="cursor: move;"><g class="label" id="v-1093" label-idx="0" cursor="default" transform="translate(307.38409423828125, 47.640926361083984)" style="cursor: move;"><rect id="v-1095" fill="none" rx="3" ry="3" width="17.33333396911621" height="28" transform="rotate(-22.885121291416414) translate(0,-11)"/><text id="v-1094" font-size="24" xml:space="preserve" y="0.8em" text-anchor="middle" fill="#000000" pointer-events="none" stroke-width="2" font-family="sans-serif" font-style="normal" transform="rotate(-22.885121291416414) translate(0,-11)"><tspan id="v-1096" class="v-line" dy="0em">D</tspan></text></g></g><g class="marker-vertices" style="cursor: move; display: none;"><g class="marker-vertex-group" transform="translate(280, 64)" id="v-2224"><circle class="marker-vertex" idx="0" r="10"/><path class="marker-vertex-remove-area" idx="0" d="M16,5.333c-7.732,0-14,4.701-14,10.5c0,1.982,0.741,3.833,2.016,5.414L2,25.667l5.613-1.441c2.339,1.317,5.237,2.107,8.387,2.107c7.732,0,14-4.701,14-10.5C30,10.034,23.732,5.333,16,5.333z" transform="translate(5, -33)"/><path class="marker-vertex-remove" idx="0" transform="scale(.8) translate(9.5, -37)" d="M24.778,21.419 19.276,15.917 24.777,10.415 21.949,7.585 16.447,13.087 10.945,7.585 8.117,10.415 13.618,15.917 8.116,21.419 10.946,24.248 16.447,18.746 21.948,24.248z"><title>Remove vertex.</title></path></g><g class="marker-vertex-group" transform="translate(346, 36)" id="v-2225"><circle class="marker-vertex" idx="1" r="10"/><path class="marker-vertex-remove-area" idx="1" d="M16,5.333c-7.732,0-14,4.701-14,10.5c0,1.982,0.741,3.833,2.016,5.414L2,25.667l5.613-1.441c2.339,1.317,5.237,2.107,8.387,2.107c7.732,0,14-4.701,14-10.5C30,10.034,23.732,5.333,16,5.333z" transform="translate(5, -33)"/><path class="marker-vertex-remove" idx="1" transform="scale(.8) translate(9.5, -37)" d="M24.778,21.419 19.276,15.917 24.777,10.415 21.949,7.585 16.447,13.087 10.945,7.585 8.117,10.415 13.618,15.917 8.116,21.419 10.946,24.248 16.447,18.746 21.948,24.248z"><title>Remove vertex.</title></path></g></g><g class="marker-arrowheads" style="cursor: move; display: none;"><g id="v-1090" transform="translate(240,117) scale(1,1) rotate(-52.957523015344776)" style="cursor: move;"/><g id="v-1091" transform="translate(404,39) scale(1,1) rotate(-177.03906243252936)" style="cursor: move;"/></g><g class="link-tools" style="cursor: move; display: none;"><g id="v-1089" transform="translate(261.3157653808594, 83.19706726074219) " style="cursor: pointer;"/></g></g><g model-id="de4e8d9e-6f0e-4e70-baf2-2e88c93b18c8" id="j_2" class="joint-cell joint-type-istar joint-type-istar-goal joint-element joint-theme-default" data-type="istar.Goal" fill="#ffffff" stroke="none" transform="translate(320,116)" style="cursor: move;"><g class="rotatable" id="v-14" style="cursor: move;"><g class="scalable" transform="scale(0.6923076923076923,1.1666666666666667)" style="cursor: move;"><rect id="v-15" fill="rgb(205,254,205)" stroke="black" stroke-width="2" width="130" height="30" rx="20"/></g><text id="v-16" font-size="12" xml:space="preserve" y="0.8em" font-weight="bold" fill="#000000" text-anchor="middle" font-family="Arial, helvetica, sans-serif" transform="matrix(1,0,0,1,45,5.900000095367432)"><tspan id="v-17" class="v-line" dy="0em">i* models</tspan><tspan id="v-18" class="v-line" dy="1em" x="0">created</tspan></text></g></g><g model-id="716c36f7-4747-47ee-b43a-449d8e8c5493" id="j_3" class="joint-cell joint-type-istar joint-type-istar-task joint-element joint-theme-default" data-type="istar.Task" fill="#ffffff" stroke="none" transform="translate(291,198)" style="cursor: move;"><g class="rotatable" id="v-21" style="cursor: move;"><g class="scalable" transform="scale(0.7307692307692307,1)" style="cursor: move;"><polygon id="v-22" points="0,18 15,0 115,0 130,18 115,36 15,36" fill="rgb(205,254,205)" stroke="black" stroke-width="2" width="130" height="36"/></g><text id="v-23" font-size="12" xml:space="preserve" y="0.8em" font-weight="bold" text-anchor="middle" fill="#000000" font-family="Arial, helvetica, sans-serif" transform="matrix(1,0,0,1,47.5,12.399999618530273)"><tspan id="v-24" class="v-line" dy="0em">Use piStar</tspan></text></g></g><g model-id="9c5205e6-fc31-4f46-a573-57666795c8e6" id="j_4" class="joint-cell joint-type-istar joint-type-istar-quality joint-element joint-theme-default" data-type="istar.Quality" fill="#ffffff" stroke="none" transform="translate(189,107)" style="cursor: move;"><g class="rotatable" id="v-27" style="cursor: move;"><g class="scalable" transform="scale(0.7852225478835798,1.0380418755529341)" style="cursor: move;"><path id="v-28" d="m 60.637955,-4.0358 c 17.5174,2.2042 29.9953,-10.69554 41.892705,-4.7858 22.34142,10.8714 11.2203,43.7743 -2.25,47.7322 -8.276505,2.9084 -13.960205,5.1934 -46.142805,-2.1786 -6.7454,-2.2317 -28.2652,6.0799 -35.4643,4.7143 C 9.072156,39.4809 6.491756,33.7693 3.744956,28.482 c -6.3069,-15.1266 -2.5738,-28.0439 7.981099,-34.7856 10.5549,-6.74179 27.9316,-7.30796 48.9119,2.2678 z" fill="rgb(205,254,205)" stroke="black" stroke-width="2"/></g><text id="v-29" font-size="12" xml:space="preserve" y="0.8em" font-weight="bold" text-anchor="middle" fill="#000000" font-family="Arial, helvetica, sans-serif" transform="matrix(1,0,0,1,45.5,11.399999618530273)"><tspan id="v-30" class="v-line" dy="0em">Good Quality</tspan></text></g></g><g model-id="415adc86-bb97-43df-80f1-68fd561c58cf" id="j_5" class="joint-cell joint-type-istar joint-type-istar-andrefinementlink joint-link joint-theme-default" data-type="istar.AndRefinementLink" style="cursor: move;"><path class="connection" stroke="black" d="M 350 198 359 161" id="v-36" fill="none"/><path class="marker-source" fill="black" stroke="black" d="" id="v-34" transform="translate(350,198) scale(1,1) rotate(-76.82744643517366)"/><path class="marker-target" fill="black" stroke="black" d="M 15 0 L 15 8 M 15 4 L 5 4 " id="v-35" stroke-width="1" transform="translate(366.0341491699219,147.0430908203125) scale(1,1) rotate(-256.82745308564824)"/><path class="connection-wrap" d="M 350 198 359 161" id="v-37" fill="none"/><g class="labels" style="cursor: move;"/><g class="marker-vertices" style="cursor: move; display: none;"/><g class="marker-arrowheads" style="cursor: move; display: none;"><g id="v-32" transform="translate(350,198) scale(0.5,0.5) rotate(-76.82744643517366)" style="cursor: move;"/><g id="v-33" transform="translate(361,151) scale(0.5,0.5) rotate(-256.82745308564824)" style="cursor: move;"/></g><g class="link-tools" style="cursor: move; display: none;"><g class="link-tool" id="v-31" transform="translate(354.7270202636719, 178.566650390625) scale(.5)" style="cursor: pointer;"><g class="tool-remove" event="remove" style="cursor: pointer;"><circle r="11"/><path transform="scale(.8) translate(-16, -16)" d="M24.778,21.419 19.276,15.917 24.777,10.415 21.949,7.585 16.447,13.087 10.945,7.585 8.117,10.415 13.618,15.917 8.116,21.419 10.946,24.248 16.447,18.746 21.948,24.248z"/><title>Remove link.</title></g><g class="tool-options" event="link:options" style="cursor: pointer;"><circle r="11" transform="translate(25)"/><path fill="white" transform="scale(.55) translate(29, -16)" d="M31.229,17.736c0.064-0.571,0.104-1.148,0.104-1.736s-0.04-1.166-0.104-1.737l-4.377-1.557c-0.218-0.716-0.504-1.401-0.851-2.05l1.993-4.192c-0.725-0.91-1.549-1.734-2.458-2.459l-4.193,1.994c-0.647-0.347-1.334-0.632-2.049-0.849l-1.558-4.378C17.165,0.708,16.588,0.667,16,0.667s-1.166,0.041-1.737,0.105L12.707,5.15c-0.716,0.217-1.401,0.502-2.05,0.849L6.464,4.005C5.554,4.73,4.73,5.554,4.005,6.464l1.994,4.192c-0.347,0.648-0.632,1.334-0.849,2.05l-4.378,1.557C0.708,14.834,0.667,15.412,0.667,16s0.041,1.165,0.105,1.736l4.378,1.558c0.217,0.715,0.502,1.401,0.849,2.049l-1.994,4.193c0.725,0.909,1.549,1.733,2.459,2.458l4.192-1.993c0.648,0.347,1.334,0.633,2.05,0.851l1.557,4.377c0.571,0.064,1.148,0.104,1.737,0.104c0.588,0,1.165-0.04,1.736-0.104l1.558-4.377c0.715-0.218,1.399-0.504,2.049-0.851l4.193,1.993c0.909-0.725,1.733-1.549,2.458-2.458l-1.993-4.193c0.347-0.647,0.633-1.334,0.851-2.049L31.229,17.736zM16,20.871c-2.69,0-4.872-2.182-4.872-4.871c0-2.69,2.182-4.872,4.872-4.872c2.689,0,4.871,2.182,4.871,4.872C20.871,18.689,18.689,20.871,16,20.871z"/><title>Link options.</title></g></g></g></g><g model-id="20e78439-856d-4f7a-99b7-072edbca218b" id="j_6" class="joint-cell joint-type-istar joint-type-istar-contributionlink joint-link joint-theme-default" data-type="istar.ContributionLink" style="cursor: move;"><path class="connection" stroke="black" d="M 301 199 C 298.7111111111111 197.7111111111111 296.4222222222222 196.42222222222222 291 194 C 285.5777777777778 191.57777777777778 277.02222222222224 188.02222222222224 271 182 C 264.97777777777776 175.97777777777776 261.4888888888889 167.48888888888888 258 159" id="v-48" fill="none"/><path class="marker-source" fill="black" stroke="black" d="" id="v-46" transform="translate(301,199) scale(1,1) rotate(-153.43495187747538)"/><path class="marker-target" fill="none" stroke="black" d="M 15 0 L 5 5 L 15 5 M 5 5 L 15 10" id="v-47" stroke-width="1.2" transform="translate(254.9065704345703,143.19081115722656) scale(1,1) rotate(60.642242364503375)"/><path class="connection-wrap" d="M 301 199 C 298.7111111111111 197.7111111111111 296.4222222222222 196.42222222222222 291 194 C 285.5777777777778 191.57777777777778 277.02222222222224 188.02222222222224 271 182 C 264.97777777777776 175.97777777777776 261.4888888888889 167.48888888888888 258 159" id="v-49" fill="none"/><g class="labels" style="cursor: move;"><g class="label" id="v-42" label-idx="0" cursor="default" transform="translate(279.0628356933594, 188.11766052246094)" style="cursor: move;"><rect id="v-44" fill="rgb(230,230,230)" rx="3" ry="3" width="27" height="14" transform="matrix(1,0,0,1,-13,-7)"/><text id="v-43" font-size="12" xml:space="preserve" y="0.8em" text-anchor="middle" fill="#000000" pointer-events="none" font-weight="bold" font-family="sans-serif" transform="matrix(1,0,0,1,0,-5.599999904632568)"><tspan id="v-45" class="v-line" dy="0em">help</tspan></text></g></g><g class="marker-vertices" style="cursor: move; display: none;"><g class="marker-vertex-group" transform="translate(291, 194)" id="v-2192"><circle class="marker-vertex" idx="0" r="10"/><path class="marker-vertex-remove-area" idx="0" d="M16,5.333c-7.732,0-14,4.701-14,10.5c0,1.982,0.741,3.833,2.016,5.414L2,25.667l5.613-1.441c2.339,1.317,5.237,2.107,8.387,2.107c7.732,0,14-4.701,14-10.5C30,10.034,23.732,5.333,16,5.333z" transform="translate(5, -33)"/><path class="marker-vertex-remove" idx="0" transform="scale(.8) translate(9.5, -37)" d="M24.778,21.419 19.276,15.917 24.777,10.415 21.949,7.585 16.447,13.087 10.945,7.585 8.117,10.415 13.618,15.917 8.116,21.419 10.946,24.248 16.447,18.746 21.948,24.248z"><title>Remove vertex.</title></path></g><g class="marker-vertex-group" transform="translate(271, 182)" id="v-2193"><circle class="marker-vertex" idx="1" r="10"/><path class="marker-vertex-remove-area" idx="1" d="M16,5.333c-7.732,0-14,4.701-14,10.5c0,1.982,0.741,3.833,2.016,5.414L2,25.667l5.613-1.441c2.339,1.317,5.237,2.107,8.387,2.107c7.732,0,14-4.701,14-10.5C30,10.034,23.732,5.333,16,5.333z" transform="translate(5, -33)"/><path class="marker-vertex-remove" idx="1" transform="scale(.8) translate(9.5, -37)" d="M24.778,21.419 19.276,15.917 24.777,10.415 21.949,7.585 16.447,13.087 10.945,7.585 8.117,10.415 13.618,15.917 8.116,21.419 10.946,24.248 16.447,18.746 21.948,24.248z"><title>Remove vertex.</title></path></g></g><g class="marker-arrowheads" style="cursor: move; display: none;"><g id="v-39" transform="translate(301,199) scale(0.5,0.5) rotate(-153.43495187747538)" style="cursor: move;"/><g id="v-40" transform="translate(253,150) scale(0.5,0.5) rotate(60.642242364503375)" style="cursor: move;"/></g><g class="link-tools" style="cursor: move; display: none;"><g class="link-tool" id="v-38" transform="translate(283.0017395019531, 190.28616333007812) scale(.5)" style="cursor: pointer;"><g class="tool-remove" event="remove" style="cursor: pointer;"><circle r="11"/><path transform="scale(.8) translate(-16, -16)" d="M24.778,21.419 19.276,15.917 24.777,10.415 21.949,7.585 16.447,13.087 10.945,7.585 8.117,10.415 13.618,15.917 8.116,21.419 10.946,24.248 16.447,18.746 21.948,24.248z"/><title>Remove link.</title></g><g class="tool-options" event="link:options" style="cursor: pointer;"><circle r="11" transform="translate(25)"/><path fill="white" transform="scale(.55) translate(29, -16)" d="M31.229,17.736c0.064-0.571,0.104-1.148,0.104-1.736s-0.04-1.166-0.104-1.737l-4.377-1.557c-0.218-0.716-0.504-1.401-0.851-2.05l1.993-4.192c-0.725-0.91-1.549-1.734-2.458-2.459l-4.193,1.994c-0.647-0.347-1.334-0.632-2.049-0.849l-1.558-4.378C17.165,0.708,16.588,0.667,16,0.667s-1.166,0.041-1.737,0.105L12.707,5.15c-0.716,0.217-1.401,0.502-2.05,0.849L6.464,4.005C5.554,4.73,4.73,5.554,4.005,6.464l1.994,4.192c-0.347,0.648-0.632,1.334-0.849,2.05l-4.378,1.557C0.708,14.834,0.667,15.412,0.667,16s0.041,1.165,0.105,1.736l4.378,1.558c0.217,0.715,0.502,1.401,0.849,2.049l-1.994,4.193c0.725,0.909,1.549,1.733,2.459,2.458l4.192-1.993c0.648,0.347,1.334,0.633,2.05,0.851l1.557,4.377c0.571,0.064,1.148,0.104,1.737,0.104c0.588,0,1.165-0.04,1.736-0.104l1.558-4.377c0.715-0.218,1.399-0.504,2.049-0.851l4.193,1.993c0.909-0.725,1.733-1.549,2.458-2.458l-1.993-4.193c0.347-0.647,0.633-1.334,0.851-2.049L31.229,17.736zM16,20.871c-2.69,0-4.872-2.182-4.872-4.871c0-2.69,2.182-4.872,4.872-4.872c2.689,0,4.871,2.182,4.871,4.872C20.871,18.689,18.689,20.871,16,20.871z"/><title>Link options.</title></g></g></g></g><g model-id="15255a2a-86bf-49cb-802c-f80826b5dc75" id="j_14" class="joint-cell joint-type-istar joint-type-istar-task joint-element joint-theme-default" data-type="istar.Task" fill="#ffffff" stroke="none" transform="translate(388,23)" style="cursor: move;"><g class="rotatable" id="v-1085" style="cursor: move;"><g class="scalable" transform="scale(0.7307692307692307,1)" style="cursor: move;"><polygon id="v-1086" points="0,18 15,0 115,0 130,18 115,36 15,36" fill="rgb(205,254,205)" stroke="black" stroke-width="2" width="130" height="36"/></g><text id="v-1087" font-size="12" xml:space="preserve" y="0.8em" font-weight="bold" text-anchor="middle" fill="#000000" font-family="Arial, helvetica, sans-serif" transform="matrix(1,0,0,1,47.5,12.399999618530273)"><tspan id="v-1088" class="v-line" dy="0em">Export image</tspan></text></g></g></g><defs id="v-4"/></svg>